# xmcd
#
# Track frame offsets:
#	150
#	37422
#	74377
#	153662
#	184191
#	206475
#	239252
#	271789
#	324778
#
# Disc length: 4785 seconds
#
# Revision: 0
# Processed by: cddbd v1.5.2PL0 Copyright (c) Steve Scherf et al.
# Submitted via: EasyCDDAExtractor 2010.6.0.0
#
DISCID=7e12af09
DTITLE=Various Artist - Bad Girls - Deluxe Version
DYEAR=2003
DGENRE=Disco
TTITLE0=Donna Summer - I Feel Love (12" Single)
TTITLE1=Donna Summer - Last Dance (Promotional 12" Single)
TTITLE2=Donna Summer - MacArthur Park Suite (12" Single)
TTITLE3=Donna Summer - Hot Stuff (12" Single)
TTITLE4=Donna Summer - Bad Girls (12" Single)
TTITLE5=Donna Summer - Walk Away (Promotional 12" Single)
TTITLE6=Donna Summer - Dim All The Lights (Promotional 12" Single)
TTITLE7=Donna Summer and Barbra Streisand - No More Tears (Enough Is Enough) (12
TTITLE7=" Single)
TTITLE8=Donna Summer - On The Radio (Long Version) 
EXTD=YEAR: 2003\n
EXTT0=
EXTT1=
EXTT2=
EXTT3=
EXTT4=
EXTT5=
EXTT6=
EXTT7=
EXTT8=
PLAYORDER=
